<?xml version="1.0" encoding="iso-8859-1"?>
<!-- Generator: Adobe Illustrator 19.0.0, SVG Export Plug-In . SVG Version: 6.00 Build 0)  -->
<svg fill="rgb(45, 117, 37)" version="1.1" id="Layer_1" xmlns="http://www.w3.org/2000/svg" xmlns:xlink="http://www.w3.org/1999/xlink" x="0px" y="0px"
	 viewBox="0 0 511.999 511.999" style="enable-background:new 0 0 511.999 511.999;" xml:space="preserve">
<g>
	<g>
		<path d="M490.684,489.363h-0.32c7.865-9.9,12.576-22.418,12.576-36.047c0-33.786-28.871-60.819-63.182-57.822
			c0.478-30.866-24.412-55.887-55.015-55.887c-23.318,0-43.224,14.512-51.236,34.99c-6.501-2.518-13.562-3.913-20.952-3.913
			c-32.066,0-58.059,25.994-58.059,58.059c0,9.036,2.065,17.588,5.747,25.214c-11.591,7.565-19.292,20.576-19.482,35.404h-1.343
			c-6.251,0-11.318,5.067-11.318,11.318s5.067,11.318,11.318,11.318h251.267c6.251,0,11.318-5.067,11.318-11.318
			C502.002,494.431,496.935,489.363,490.684,489.363z"/>
	</g>
</g>
<g>
	<g>
		<path d="M492.581,98.918l-11.638-15.64c-1.394-1.873-1.394-4.44,0-6.312l11.638-15.641c1.024-1.374,1.317-3.16,0.787-4.79
			c-0.53-1.63-1.816-2.902-3.452-3.413l-18.609-5.812c-2.229-0.696-3.737-2.772-3.71-5.107l0.222-19.494
			c0.02-1.713-0.793-3.33-2.179-4.337c-1.387-1.007-3.175-1.28-4.799-0.732l-18.471,6.236c-2.213,0.747-4.653-0.047-6.004-1.951
			L425.087,6.02c-0.991-1.398-2.599-2.228-4.313-2.228s-3.322,0.83-4.313,2.228l-11.278,15.902
			c-1.351,1.904-3.791,2.698-6.004,1.951l-18.471-6.236c-1.624-0.548-3.413-0.275-4.799,0.732c-1.387,1.008-2.198,2.624-2.179,4.337
			l0.222,19.494c0.027,2.335-1.482,4.411-3.71,5.107l-18.609,5.812c-1.635,0.511-2.922,1.783-3.453,3.413
			c-0.53,1.63-0.237,3.415,0.787,4.79l11.638,15.641c1.394,1.873,1.394,4.44,0,6.312l-11.637,15.642
			c-1.024,1.375-1.317,3.161-0.787,4.79c0.529,1.63,1.816,2.902,3.453,3.413l18.609,5.812c2.229,0.696,3.737,2.772,3.71,5.107
			l-0.222,19.494c-0.02,1.713,0.793,3.331,2.179,4.337s3.175,1.28,4.799,0.732l18.471-6.236c2.213-0.747,4.653,0.047,6.004,1.951
			l11.278,15.902c0.991,1.398,2.599,2.228,4.313,2.228s3.322-0.83,4.313-2.228l11.278-15.902c1.351-1.904,3.791-2.698,6.004-1.951
			l18.471,6.236c1.624,0.548,3.413,0.275,4.799-0.732c1.387-1.008,2.199-2.624,2.179-4.337l-0.222-19.494
			c-0.027-2.335,1.482-4.411,3.71-5.107l18.609-5.812c1.635-0.511,2.923-1.783,3.452-3.413
			C493.897,102.078,493.604,100.293,492.581,98.918z M420.776,116.813c-20.265,0-36.692-16.427-36.692-36.692
			s16.427-36.692,36.692-36.692c20.264,0,36.692,16.427,36.692,36.692C457.468,100.385,441.041,116.813,420.776,116.813z"/>
	</g>
</g>
<g>
	<g>
		<circle cx="98.937" cy="42.141" r="42.141"/>
	</g>
</g>
<g>
	<g>
		<path d="M357.91,263.566l-9.481,9.481l-44.333-3.695l22.121-33.247c1.689-2.538,1.353-5.914-0.803-8.07l-44.757-44.757
			c-2.053-2.053-5.203-2.432-7.691-1.009c-0.97-8.123-4.596-15.641-10.47-21.515c-8.527-8.527-20.344-12.165-31.994-10.238
			c-3.818-1.941-8.308-2.614-12.815-1.605l-64.46,14.434l-44.714-42.838l43.931,23.443l-4.468-22.577
			c-2.463-12.443-13.376-21.437-26.061-21.437c-16.335,0-27.824,0-45.955,0c-12.71,0-23.593,8.968-26.061,21.437L9.277,326.606
			c-1.387,7.008,4.011,13.502,11.081,13.502c6.482,0,14.897,0,24.513,0V487.6c0,13.475,10.924,24.399,24.399,24.399
			c13.475,0,24.399-10.924,24.399-24.399V340.108c3.508,0,7.026,0,10.535,0V487.6c0,13.475,10.924,24.399,24.399,24.399
			s24.399-10.924,24.399-24.399V340.108c9.617,0,18.034,0,24.512,0c7.109,0,12.465-6.504,11.081-13.502l-21.317-107.699
			c-13.652,3.057-9.515,2.13-19.328,4.329c-10.775,2.412-21.501-2.521-26.965-11.438l-38.895-63.709l52.105,49.92
			c4.601,4.407,11.117,6.249,17.384,4.846l48.693-10.904c1.088,7.57,4.537,14.864,10.35,20.676c2.342,2.342,4.95,4.319,7.748,5.923
			l-19.77,13.154c-11.22,7.466-12.782,23.322-3.267,32.84l48.817,48.816c9.558,9.555,25.409,7.903,32.841-3.268l4.551-6.84
			l48.171-4.014c0.211,0.302,0.438,0.597,0.708,0.867l27.488,27.488c3.999,3.999,10.923,1.208,10.923-4.525v-54.975
			C368.833,262.412,361.939,259.538,357.91,263.566z M248.049,198.177c-6.35,6.349-16.625,6.348-22.974,0
			c-2.973-2.973-4.532-6.822-4.714-10.725l5.674-1.27c7.709-1.726,13.276-7.89,14.615-15.2c2.772,0.717,5.32,2.145,7.398,4.222
			C254.397,181.553,254.398,191.828,248.049,198.177z"/>
	</g>
</g>
<g>
</g>
<g>
</g>
<g>
</g>
<g>
</g>
<g>
</g>
<g>
</g>
<g>
</g>
<g>
</g>
<g>
</g>
<g>
</g>
<g>
</g>
<g>
</g>
<g>
</g>
<g>
</g>
<g>
</g>
</svg>
